<?xml version="1.0" encoding="iso-8859-1"?>
<!-- Generator: Adobe Illustrator 18.0.0, SVG Export Plug-In . SVG Version: 6.00 Build 0)  -->
<!DOCTYPE svg PUBLIC "-//W3C//DTD SVG 1.1//EN" "http://www.w3.org/Graphics/SVG/1.1/DTD/svg11.dtd">
<svg version="1.1" id="Capa_1" xmlns="http://www.w3.org/2000/svg" xmlns:xlink="http://www.w3.org/1999/xlink" x="0px" y="0px"
	 viewBox="0 0 60 60" style="enable-background:new 0 0 60 60;" xml:space="preserve">
<path d="M59.6,23.075l-3.979-2.984L34.414,3.973c-2.561-1.945-6.268-1.945-8.828,0L4.379,20.091L0.4,23.075
	c-0.442,0.331-0.531,0.958-0.2,1.399c0.196,0.263,0.497,0.4,0.801,0.4c0.208,0,0.419-0.065,0.599-0.2l2.4-1.8v3.22
	c-0.223,0.12-0.425,0.26-0.587,0.43l-0.525,0.453c-0.924,0.492-1.615,1.457-1.817,2.553c-0.111,0.599-0.076,1.231,0.102,1.829
	c0.097,0.329,0.02,0.727-0.208,1.063c-1.047,1.549-1.259,3.707-0.527,5.374c0.111,0.251,0.248,0.487,0.409,0.705
	c0.231,0.312,0.313,0.725,0.219,1.107c-0.051,0.205-0.086,0.416-0.105,0.623c-0.082,0.895,0.102,1.765,0.25,2.464
	c0.155,0.735,0.39,1.846,1.215,2.555c0.433,0.373,0.977,0.576,1.576,0.61v3.014H1.349c-0.379,0-0.738,0.165-0.985,0.452
	c-0.248,0.287-0.357,0.667-0.3,1.042l1.076,7.117h5.698H8.86H12h37h4.153c1.57,0,2.847-1.277,2.847-2.847V22.874l2.4,1.8
	c0.18,0.135,0.391,0.2,0.599,0.2c0.304,0,0.604-0.138,0.801-0.4C60.131,24.033,60.042,23.406,59.6,23.075z M14,55.486v-3h33v3H14z
	 M47,42.486v3H14v-3H47z M47,35.486H14v-3h33V35.486z M53.153,55.486H49v-30H12v30H9.163l0.775-5.124
	c0.056-0.373-0.053-0.751-0.299-1.037c-0.247-0.286-0.604-0.45-0.982-0.45H6v-3.459c0.056-0.026,0.111-0.054,0.166-0.082
	c1.611-0.832,2.746-2.108,3.196-3.595c0.309-1.019,0.241-2.208-0.18-3.182c-0.157-0.363-0.188-0.746-0.099-1.053
	c0.031-0.109,0.076-0.209,0.138-0.294c0.341-0.469,0.643-1.033,0.897-1.677c0.38-0.959,0.521-1.803,0.455-2.574
	c-0.012-0.146-0.019-0.294-0.047-0.434c-0.104-0.518-0.333-1.003-0.665-1.406c-0.185-0.224-0.267-0.571-0.204-0.864
	c0.173-0.809,0.062-1.68-0.306-2.392c-0.586-1.128-1.762-1.92-3.146-2.116c-0.054-0.008-0.11-0.014-0.165-0.02L28.174,8.906
	c1.074-0.816,2.576-0.817,3.652,0L54,25.758v28.881C54,55.106,53.62,55.486,53.153,55.486z"/>
<g>
</g>
<g>
</g>
<g>
</g>
<g>
</g>
<g>
</g>
<g>
</g>
<g>
</g>
<g>
</g>
<g>
</g>
<g>
</g>
<g>
</g>
<g>
</g>
<g>
</g>
<g>
</g>
<g>
</g>
</svg>
